<mxfile host="app.diagrams.net" agent="Mozilla/5.0 (Macintosh; Intel Mac OS X 10_15_7) AppleWebKit/537.36 (KHTML, like Gecko) Chrome/141.0.0.0 Safari/537.36 Edg/141.0.0.0" version="28.2.5">
  <diagram name="Page-1" id="PfrGsTy-slMTIX5IOAVc">
    <mxGraphModel dx="1680" dy="525" grid="1" gridSize="10" guides="1" tooltips="1" connect="1" arrows="1" fold="1" page="1" pageScale="1" pageWidth="850" pageHeight="1100" math="0" shadow="0">
      <root>
        <mxCell id="0" />
        <mxCell id="1" parent="0" />
        <mxCell id="PiCTK8izgxCGDYBtKkhQ-7" style="edgeStyle=orthogonalEdgeStyle;rounded=0;orthogonalLoop=1;jettySize=auto;html=1;exitX=0;exitY=0.5;exitDx=0;exitDy=0;entryX=0.5;entryY=0;entryDx=0;entryDy=0;" edge="1" parent="1" source="PiCTK8izgxCGDYBtKkhQ-1" target="PiCTK8izgxCGDYBtKkhQ-2">
          <mxGeometry relative="1" as="geometry" />
        </mxCell>
        <mxCell id="PiCTK8izgxCGDYBtKkhQ-32" style="edgeStyle=orthogonalEdgeStyle;rounded=0;orthogonalLoop=1;jettySize=auto;html=1;exitX=1;exitY=0.5;exitDx=0;exitDy=0;" edge="1" parent="1" source="PiCTK8izgxCGDYBtKkhQ-1" target="PiCTK8izgxCGDYBtKkhQ-31">
          <mxGeometry relative="1" as="geometry" />
        </mxCell>
        <mxCell id="PiCTK8izgxCGDYBtKkhQ-1" value="User (Base Class)" style="rounded=0;whiteSpace=wrap;html=1;" vertex="1" parent="1">
          <mxGeometry x="210" y="130" width="140" height="60" as="geometry" />
        </mxCell>
        <mxCell id="PiCTK8izgxCGDYBtKkhQ-8" style="edgeStyle=orthogonalEdgeStyle;rounded=0;orthogonalLoop=1;jettySize=auto;html=1;exitX=0.5;exitY=1;exitDx=0;exitDy=0;entryX=0.5;entryY=0;entryDx=0;entryDy=0;" edge="1" parent="1" source="PiCTK8izgxCGDYBtKkhQ-2" target="PiCTK8izgxCGDYBtKkhQ-3">
          <mxGeometry relative="1" as="geometry" />
        </mxCell>
        <mxCell id="PiCTK8izgxCGDYBtKkhQ-45" style="edgeStyle=orthogonalEdgeStyle;rounded=0;orthogonalLoop=1;jettySize=auto;html=1;exitX=1;exitY=0.5;exitDx=0;exitDy=0;entryX=0.5;entryY=0;entryDx=0;entryDy=0;" edge="1" parent="1" source="PiCTK8izgxCGDYBtKkhQ-2" target="PiCTK8izgxCGDYBtKkhQ-46">
          <mxGeometry relative="1" as="geometry">
            <mxPoint x="220" y="380" as="targetPoint" />
          </mxGeometry>
        </mxCell>
        <mxCell id="PiCTK8izgxCGDYBtKkhQ-2" value="Customer" style="rounded=0;whiteSpace=wrap;html=1;" vertex="1" parent="1">
          <mxGeometry x="50" y="250" width="140" height="60" as="geometry" />
        </mxCell>
        <mxCell id="PiCTK8izgxCGDYBtKkhQ-9" style="edgeStyle=orthogonalEdgeStyle;rounded=0;orthogonalLoop=1;jettySize=auto;html=1;exitX=0.5;exitY=1;exitDx=0;exitDy=0;entryX=0.5;entryY=0;entryDx=0;entryDy=0;" edge="1" parent="1" source="PiCTK8izgxCGDYBtKkhQ-3" target="PiCTK8izgxCGDYBtKkhQ-4">
          <mxGeometry relative="1" as="geometry" />
        </mxCell>
        <mxCell id="PiCTK8izgxCGDYBtKkhQ-3" value="Customer login / Authentication" style="rounded=0;whiteSpace=wrap;html=1;" vertex="1" parent="1">
          <mxGeometry x="-110" y="390" width="140" height="60" as="geometry" />
        </mxCell>
        <mxCell id="PiCTK8izgxCGDYBtKkhQ-10" style="edgeStyle=orthogonalEdgeStyle;rounded=0;orthogonalLoop=1;jettySize=auto;html=1;exitX=0.5;exitY=1;exitDx=0;exitDy=0;entryX=0.5;entryY=0;entryDx=0;entryDy=0;" edge="1" parent="1" source="PiCTK8izgxCGDYBtKkhQ-4" target="PiCTK8izgxCGDYBtKkhQ-6">
          <mxGeometry relative="1" as="geometry" />
        </mxCell>
        <mxCell id="PiCTK8izgxCGDYBtKkhQ-4" value="Catalogue browsing" style="rounded=0;whiteSpace=wrap;html=1;" vertex="1" parent="1">
          <mxGeometry x="-110" y="520" width="140" height="60" as="geometry" />
        </mxCell>
        <mxCell id="PiCTK8izgxCGDYBtKkhQ-12" style="edgeStyle=orthogonalEdgeStyle;rounded=0;orthogonalLoop=1;jettySize=auto;html=1;exitX=0.5;exitY=1;exitDx=0;exitDy=0;entryX=0.5;entryY=0;entryDx=0;entryDy=0;" edge="1" parent="1" source="PiCTK8izgxCGDYBtKkhQ-6" target="PiCTK8izgxCGDYBtKkhQ-11">
          <mxGeometry relative="1" as="geometry" />
        </mxCell>
        <mxCell id="PiCTK8izgxCGDYBtKkhQ-6" value="Product Display" style="rounded=0;whiteSpace=wrap;html=1;" vertex="1" parent="1">
          <mxGeometry x="-110" y="660" width="140" height="60" as="geometry" />
        </mxCell>
        <mxCell id="PiCTK8izgxCGDYBtKkhQ-14" style="edgeStyle=orthogonalEdgeStyle;rounded=0;orthogonalLoop=1;jettySize=auto;html=1;exitX=0;exitY=0.5;exitDx=0;exitDy=0;entryX=0.5;entryY=0;entryDx=0;entryDy=0;" edge="1" parent="1" source="PiCTK8izgxCGDYBtKkhQ-11" target="PiCTK8izgxCGDYBtKkhQ-13">
          <mxGeometry relative="1" as="geometry" />
        </mxCell>
        <mxCell id="PiCTK8izgxCGDYBtKkhQ-16" style="edgeStyle=orthogonalEdgeStyle;rounded=0;orthogonalLoop=1;jettySize=auto;html=1;exitX=0.5;exitY=1;exitDx=0;exitDy=0;entryX=0.5;entryY=0;entryDx=0;entryDy=0;" edge="1" parent="1" source="PiCTK8izgxCGDYBtKkhQ-11" target="PiCTK8izgxCGDYBtKkhQ-15">
          <mxGeometry relative="1" as="geometry" />
        </mxCell>
        <mxCell id="PiCTK8izgxCGDYBtKkhQ-54" style="edgeStyle=orthogonalEdgeStyle;rounded=0;orthogonalLoop=1;jettySize=auto;html=1;exitX=1;exitY=0.5;exitDx=0;exitDy=0;entryX=0;entryY=0.5;entryDx=0;entryDy=0;" edge="1" parent="1" source="PiCTK8izgxCGDYBtKkhQ-11" target="PiCTK8izgxCGDYBtKkhQ-17">
          <mxGeometry relative="1" as="geometry" />
        </mxCell>
        <mxCell id="PiCTK8izgxCGDYBtKkhQ-58" style="edgeStyle=orthogonalEdgeStyle;rounded=0;orthogonalLoop=1;jettySize=auto;html=1;exitX=1;exitY=0.75;exitDx=0;exitDy=0;" edge="1" parent="1" source="PiCTK8izgxCGDYBtKkhQ-11" target="PiCTK8izgxCGDYBtKkhQ-55">
          <mxGeometry relative="1" as="geometry" />
        </mxCell>
        <mxCell id="PiCTK8izgxCGDYBtKkhQ-11" value="Order Created" style="rounded=0;whiteSpace=wrap;html=1;" vertex="1" parent="1">
          <mxGeometry x="-110" y="810" width="140" height="60" as="geometry" />
        </mxCell>
        <mxCell id="PiCTK8izgxCGDYBtKkhQ-13" value="OrderItem added to Order" style="rounded=0;whiteSpace=wrap;html=1;" vertex="1" parent="1">
          <mxGeometry x="-310" y="940" width="140" height="60" as="geometry" />
        </mxCell>
        <mxCell id="PiCTK8izgxCGDYBtKkhQ-22" style="edgeStyle=orthogonalEdgeStyle;rounded=0;orthogonalLoop=1;jettySize=auto;html=1;exitX=0.5;exitY=1;exitDx=0;exitDy=0;entryX=0.5;entryY=0;entryDx=0;entryDy=0;" edge="1" parent="1" source="PiCTK8izgxCGDYBtKkhQ-15" target="PiCTK8izgxCGDYBtKkhQ-21">
          <mxGeometry relative="1" as="geometry" />
        </mxCell>
        <mxCell id="PiCTK8izgxCGDYBtKkhQ-30" style="edgeStyle=orthogonalEdgeStyle;rounded=0;orthogonalLoop=1;jettySize=auto;html=1;exitX=0.75;exitY=1;exitDx=0;exitDy=0;entryX=0.5;entryY=0;entryDx=0;entryDy=0;" edge="1" parent="1" source="PiCTK8izgxCGDYBtKkhQ-15" target="PiCTK8izgxCGDYBtKkhQ-29">
          <mxGeometry relative="1" as="geometry" />
        </mxCell>
        <mxCell id="PiCTK8izgxCGDYBtKkhQ-48" style="edgeStyle=orthogonalEdgeStyle;rounded=0;orthogonalLoop=1;jettySize=auto;html=1;exitX=1;exitY=0.5;exitDx=0;exitDy=0;" edge="1" parent="1" source="PiCTK8izgxCGDYBtKkhQ-15">
          <mxGeometry relative="1" as="geometry">
            <mxPoint x="574" y="1170" as="targetPoint" />
            <Array as="points">
              <mxPoint x="30" y="1030" />
              <mxPoint x="574" y="1030" />
            </Array>
          </mxGeometry>
        </mxCell>
        <mxCell id="PiCTK8izgxCGDYBtKkhQ-15" value="Payment Initiated" style="rounded=0;whiteSpace=wrap;html=1;" vertex="1" parent="1">
          <mxGeometry x="-110" y="940" width="140" height="60" as="geometry" />
        </mxCell>
        <mxCell id="PiCTK8izgxCGDYBtKkhQ-17" value="Invoice Issued" style="rounded=0;whiteSpace=wrap;html=1;" vertex="1" parent="1">
          <mxGeometry x="90" y="810" width="140" height="60" as="geometry" />
        </mxCell>
        <mxCell id="PiCTK8izgxCGDYBtKkhQ-26" style="edgeStyle=orthogonalEdgeStyle;rounded=0;orthogonalLoop=1;jettySize=auto;html=1;exitX=0.5;exitY=1;exitDx=0;exitDy=0;" edge="1" parent="1" source="PiCTK8izgxCGDYBtKkhQ-21" target="PiCTK8izgxCGDYBtKkhQ-23">
          <mxGeometry relative="1" as="geometry" />
        </mxCell>
        <mxCell id="PiCTK8izgxCGDYBtKkhQ-27" style="edgeStyle=orthogonalEdgeStyle;rounded=0;orthogonalLoop=1;jettySize=auto;html=1;exitX=0.5;exitY=1;exitDx=0;exitDy=0;entryX=0.5;entryY=0;entryDx=0;entryDy=0;" edge="1" parent="1" source="PiCTK8izgxCGDYBtKkhQ-21" target="PiCTK8izgxCGDYBtKkhQ-24">
          <mxGeometry relative="1" as="geometry" />
        </mxCell>
        <mxCell id="PiCTK8izgxCGDYBtKkhQ-28" style="edgeStyle=orthogonalEdgeStyle;rounded=0;orthogonalLoop=1;jettySize=auto;html=1;exitX=0.5;exitY=1;exitDx=0;exitDy=0;entryX=0.5;entryY=0;entryDx=0;entryDy=0;" edge="1" parent="1" source="PiCTK8izgxCGDYBtKkhQ-21" target="PiCTK8izgxCGDYBtKkhQ-25">
          <mxGeometry relative="1" as="geometry" />
        </mxCell>
        <mxCell id="PiCTK8izgxCGDYBtKkhQ-21" value="Select Payment Method" style="rhombus;whiteSpace=wrap;html=1;" vertex="1" parent="1">
          <mxGeometry x="-260" y="1100" width="160" height="150" as="geometry" />
        </mxCell>
        <mxCell id="PiCTK8izgxCGDYBtKkhQ-23" value="Digital Wallet" style="rounded=0;whiteSpace=wrap;html=1;" vertex="1" parent="1">
          <mxGeometry x="-410" y="1320" width="140" height="60" as="geometry" />
        </mxCell>
        <mxCell id="PiCTK8izgxCGDYBtKkhQ-24" value="PayPal" style="rounded=0;whiteSpace=wrap;html=1;" vertex="1" parent="1">
          <mxGeometry x="-250" y="1320" width="140" height="60" as="geometry" />
        </mxCell>
        <mxCell id="PiCTK8izgxCGDYBtKkhQ-25" value="BankDebit" style="rounded=0;whiteSpace=wrap;html=1;" vertex="1" parent="1">
          <mxGeometry x="-90" y="1320" width="140" height="60" as="geometry" />
        </mxCell>
        <mxCell id="PiCTK8izgxCGDYBtKkhQ-29" value="Receipt generated" style="rounded=0;whiteSpace=wrap;html=1;" vertex="1" parent="1">
          <mxGeometry x="10" y="1100" width="140" height="60" as="geometry" />
        </mxCell>
        <mxCell id="PiCTK8izgxCGDYBtKkhQ-42" style="edgeStyle=orthogonalEdgeStyle;rounded=0;orthogonalLoop=1;jettySize=auto;html=1;exitX=0.5;exitY=1;exitDx=0;exitDy=0;entryX=0.5;entryY=0;entryDx=0;entryDy=0;" edge="1" parent="1" source="PiCTK8izgxCGDYBtKkhQ-31" target="PiCTK8izgxCGDYBtKkhQ-40">
          <mxGeometry relative="1" as="geometry" />
        </mxCell>
        <mxCell id="PiCTK8izgxCGDYBtKkhQ-59" style="edgeStyle=orthogonalEdgeStyle;rounded=0;orthogonalLoop=1;jettySize=auto;html=1;exitX=1;exitY=0.5;exitDx=0;exitDy=0;entryX=1;entryY=0.5;entryDx=0;entryDy=0;" edge="1" parent="1">
          <mxGeometry relative="1" as="geometry">
            <mxPoint x="610" y="280" as="sourcePoint" />
            <mxPoint x="730" y="1200" as="targetPoint" />
          </mxGeometry>
        </mxCell>
        <mxCell id="PiCTK8izgxCGDYBtKkhQ-31" value="Admin" style="rounded=0;whiteSpace=wrap;html=1;" vertex="1" parent="1">
          <mxGeometry x="390" y="250" width="140" height="60" as="geometry" />
        </mxCell>
        <mxCell id="PiCTK8izgxCGDYBtKkhQ-35" style="edgeStyle=orthogonalEdgeStyle;rounded=0;orthogonalLoop=1;jettySize=auto;html=1;exitX=0.5;exitY=1;exitDx=0;exitDy=0;entryX=0.5;entryY=0;entryDx=0;entryDy=0;" edge="1" parent="1" source="PiCTK8izgxCGDYBtKkhQ-33" target="PiCTK8izgxCGDYBtKkhQ-36">
          <mxGeometry relative="1" as="geometry">
            <mxPoint x="460" y="520" as="targetPoint" />
          </mxGeometry>
        </mxCell>
        <mxCell id="PiCTK8izgxCGDYBtKkhQ-37" value="Update and adjust stock level" style="edgeLabel;html=1;align=center;verticalAlign=middle;resizable=0;points=[];" vertex="1" connectable="0" parent="PiCTK8izgxCGDYBtKkhQ-35">
          <mxGeometry x="-0.0286" y="2" relative="1" as="geometry">
            <mxPoint as="offset" />
          </mxGeometry>
        </mxCell>
        <mxCell id="PiCTK8izgxCGDYBtKkhQ-43" style="edgeStyle=orthogonalEdgeStyle;rounded=0;orthogonalLoop=1;jettySize=auto;html=1;exitX=1;exitY=0.5;exitDx=0;exitDy=0;entryX=0;entryY=0.5;entryDx=0;entryDy=0;" edge="1" parent="1" source="PiCTK8izgxCGDYBtKkhQ-33" target="PiCTK8izgxCGDYBtKkhQ-44">
          <mxGeometry relative="1" as="geometry">
            <mxPoint x="580" y="500" as="targetPoint" />
          </mxGeometry>
        </mxCell>
        <mxCell id="PiCTK8izgxCGDYBtKkhQ-33" value="Inventory Management" style="rounded=0;whiteSpace=wrap;html=1;" vertex="1" parent="1">
          <mxGeometry x="390" y="470" width="140" height="60" as="geometry" />
        </mxCell>
        <mxCell id="PiCTK8izgxCGDYBtKkhQ-39" style="edgeStyle=orthogonalEdgeStyle;rounded=0;orthogonalLoop=1;jettySize=auto;html=1;exitX=0.5;exitY=1;exitDx=0;exitDy=0;entryX=0.5;entryY=0;entryDx=0;entryDy=0;" edge="1" parent="1" source="PiCTK8izgxCGDYBtKkhQ-36" target="PiCTK8izgxCGDYBtKkhQ-38">
          <mxGeometry relative="1" as="geometry" />
        </mxCell>
        <mxCell id="PiCTK8izgxCGDYBtKkhQ-36" value="InventoryItem Record" style="rounded=0;whiteSpace=wrap;html=1;" vertex="1" parent="1">
          <mxGeometry x="390" y="660" width="140" height="60" as="geometry" />
        </mxCell>
        <mxCell id="PiCTK8izgxCGDYBtKkhQ-38" value="Stock Level Updated" style="rounded=0;whiteSpace=wrap;html=1;" vertex="1" parent="1">
          <mxGeometry x="390" y="770" width="140" height="60" as="geometry" />
        </mxCell>
        <mxCell id="PiCTK8izgxCGDYBtKkhQ-41" style="edgeStyle=orthogonalEdgeStyle;rounded=0;orthogonalLoop=1;jettySize=auto;html=1;exitX=0.5;exitY=1;exitDx=0;exitDy=0;entryX=0.5;entryY=0;entryDx=0;entryDy=0;" edge="1" parent="1" source="PiCTK8izgxCGDYBtKkhQ-40" target="PiCTK8izgxCGDYBtKkhQ-33">
          <mxGeometry relative="1" as="geometry" />
        </mxCell>
        <mxCell id="PiCTK8izgxCGDYBtKkhQ-40" value="Admin login / Authentication" style="rounded=0;whiteSpace=wrap;html=1;" vertex="1" parent="1">
          <mxGeometry x="390" y="350" width="140" height="60" as="geometry" />
        </mxCell>
        <mxCell id="PiCTK8izgxCGDYBtKkhQ-44" value="Database (Product)" style="rounded=0;whiteSpace=wrap;html=1;" vertex="1" parent="1">
          <mxGeometry x="580" y="470" width="140" height="60" as="geometry" />
        </mxCell>
        <mxCell id="PiCTK8izgxCGDYBtKkhQ-46" value="Database (Customer)" style="rounded=0;whiteSpace=wrap;html=1;" vertex="1" parent="1">
          <mxGeometry x="150" y="390" width="140" height="60" as="geometry" />
        </mxCell>
        <mxCell id="PiCTK8izgxCGDYBtKkhQ-56" style="edgeStyle=orthogonalEdgeStyle;rounded=0;orthogonalLoop=1;jettySize=auto;html=1;exitX=0;exitY=0.5;exitDx=0;exitDy=0;entryX=1;entryY=0.5;entryDx=0;entryDy=0;" edge="1" parent="1" source="PiCTK8izgxCGDYBtKkhQ-49" target="PiCTK8izgxCGDYBtKkhQ-55">
          <mxGeometry relative="1" as="geometry" />
        </mxCell>
        <mxCell id="PiCTK8izgxCGDYBtKkhQ-57" value="retrieve data from" style="edgeLabel;html=1;align=center;verticalAlign=middle;resizable=0;points=[];" vertex="1" connectable="0" parent="PiCTK8izgxCGDYBtKkhQ-56">
          <mxGeometry x="-0.1624" y="3" relative="1" as="geometry">
            <mxPoint as="offset" />
          </mxGeometry>
        </mxCell>
        <mxCell id="PiCTK8izgxCGDYBtKkhQ-49" value="View customer invoices" style="rounded=0;whiteSpace=wrap;html=1;" vertex="1" parent="1">
          <mxGeometry x="510" y="1170" width="140" height="60" as="geometry" />
        </mxCell>
        <mxCell id="PiCTK8izgxCGDYBtKkhQ-55" value="Database (Order)" style="rounded=0;whiteSpace=wrap;html=1;" vertex="1" parent="1">
          <mxGeometry x="220" y="1170" width="140" height="60" as="geometry" />
        </mxCell>
      </root>
    </mxGraphModel>
  </diagram>
</mxfile>
